<svg width="815" height="556" viewBox="0 0 815 556" fill="none" xmlns="http://www.w3.org/2000/svg">
<path d="M0 444.444H37.037V407.407H74.0741V370.37H111.111V333.333H148.148V296.296H185.185V259.259H222.222V222.222H259.259V148.148H222.222V111.111H148.148V148.148H111.111V185.185H0V74.0741H37.037V37.0371H74.0741V0H296.296V37.0371H333.333V74.0741H370.37V259.259H333.333V296.296H296.296V333.333H259.259V370.37H222.222V407.407H185.185V444.444H370.37V555.556H0V444.444Z" fill="#FF8C00"/>
<path d="M555.447 222.222H592.484V185.185H703.595V222.222H777.669V259.259H814.706V481.482H777.669V518.519H740.632V555.556H518.41V518.519H481.373V481.482H444.336V296.296V74.0741H481.373V37.0371H518.41V0H740.632V37.0371H777.669V74.0741H814.706V185.185H703.595V148.148H666.558V111.111H592.484V148.148H555.447V222.222ZM592.484 444.444H666.558V407.407H703.595V333.333H666.558V296.296H592.484V333.333H555.447V407.407H592.484V444.444Z" fill="#FF8C00"/>
</svg>
